<svg width="22" height="24" viewBox="0 0 22 24" fill="none" xmlns="http://www.w3.org/2000/svg">
<path fill-rule="evenodd" clip-rule="evenodd" d="M14.2124 3.89624C14.9951 2.88584 15.5884 1.45774 15.3738 0C14.0945 0.088904 12.5992 0.907396 11.7267 1.97424C10.9314 2.9409 10.2777 4.37889 10.533 5.77454C11.9315 5.81828 13.3749 4.98002 14.2124 3.89624ZM21.125 17.6086C20.5653 18.8561 20.296 19.4135 19.575 20.5185C18.5692 22.0609 17.1511 23.9815 15.3921 23.9956C13.8308 24.0125 13.4282 22.9725 11.3087 22.9852C9.18921 22.9965 8.74735 24.0153 7.18331 23.9998C5.4257 23.9843 4.08188 22.2514 3.07613 20.709C0.262261 16.3992 -0.0337152 11.3402 1.70146 8.64908C2.93586 6.73835 4.88284 5.6207 6.71199 5.6207C8.57341 5.6207 9.74469 6.64804 11.2863 6.64804C12.7816 6.64804 13.692 5.61789 15.8451 5.61789C17.4751 5.61789 19.2019 6.51115 20.4307 8.05215C16.402 10.2733 17.0543 16.0606 21.125 17.6086Z" fill="#20130B"/>
</svg>
