<svg width="20" height="12" viewBox="0 0 20 12" fill="none" xmlns="http://www.w3.org/2000/svg">
<path d="M10 4.00462C12.2091 4.00462 14 5.79549 14 8.00462C14 10.2138 12.2091 12.0046 10 12.0046C7.79086 12.0046 6 10.2138 6 8.00462C6 5.79549 7.79086 4.00462 10 4.00462ZM10 0.5C14.6135 0.5 18.5961 3.65001 19.7011 8.06439C19.8017 8.4662 19.5575 8.87348 19.1557 8.97406C18.7539 9.07465 18.3466 8.83045 18.246 8.42863C17.3071 4.67796 13.9214 2 10 2C6.07694 2 2.6901 4.68026 1.75286 8.43315C1.6525 8.83502 1.24536 9.07944 0.843487 8.97908C0.441616 8.87872 0.197195 8.47158 0.297558 8.06971C1.40065 3.65272 5.38449 0.5 10 0.5Z" fill="#8B8B8B"/>
</svg>
