<?xml version="1.0" ?><svg xmlns="http://www.w3.org/2000/svg" xmlns:xlink="http://www.w3.org/1999/xlink" version="1.1" viewBox="0 0 94 94" style="enable-background:new 0 0 94 94;" xml:space="preserve"><style type="text/css">
	.st0{display:none;}
	.st1{display:inline;fill:#FEA900;}
	.st2{display:inline;}
	.st3{display:inline;fill:#F9CD6C;}
	.st4{display:inline;fill:none;stroke:#000000;stroke-width:0.25;stroke-miterlimit:10;}
	.st5{stroke:#000000;stroke-linecap:round;stroke-linejoin:round;stroke-miterlimit:10;}
	.st6{opacity:0.2;stroke:#000000;stroke-linecap:round;stroke-linejoin:round;stroke-miterlimit:10;}
	.st7{fill:#F12A00;stroke:#000000;stroke-linecap:round;stroke-linejoin:round;stroke-miterlimit:10;}
	.st8{fill:#FBECCF;stroke:#000000;stroke-linecap:round;stroke-linejoin:round;stroke-miterlimit:10;}
	.st9{opacity:0.2;fill:#F12A00;}
	.st10{fill:#F7C86C;stroke:#000000;stroke-linecap:round;stroke-linejoin:round;stroke-miterlimit:10;}
	.st11{fill:none;stroke:#000000;stroke-linecap:round;stroke-linejoin:round;stroke-miterlimit:10;}
	.st12{display:inline;stroke:#000000;stroke-linecap:round;stroke-linejoin:round;stroke-miterlimit:10;}
	.st13{fill:#FAAC01;stroke:#000000;stroke-linecap:round;stroke-linejoin:round;stroke-miterlimit:10;}
	.st14{fill:#FAAC01;}
	.st15{display:inline;fill:#FAEBCE;stroke:#000000;stroke-width:0.25;stroke-miterlimit:10;}
	.st16{display:inline;fill:none;stroke:#000000;stroke-width:1.0164;stroke-miterlimit:10;}
	.st17{display:inline;fill:#FAEBCE;stroke:#000000;stroke-width:1.0164;stroke-miterlimit:10;}
	.st18{fill:#FEA900;}
	.st19{fill:#F9CD6C;}
	.st20{fill:none;stroke:#000000;stroke-width:1.0164;stroke-miterlimit:10;}
	.st21{fill:#FAEBCE;stroke:#000000;stroke-width:1.0164;stroke-miterlimit:10;}
	.st22{display:inline;fill:#FAEBCE;}
	.st23{fill:#008FF5;stroke:#000000;stroke-linecap:round;stroke-linejoin:round;stroke-miterlimit:10;}
	.st24{fill:#D0E6FB;stroke:#000000;stroke-linecap:round;stroke-linejoin:round;stroke-miterlimit:10;}
	.st25{fill:#FFFFFF;stroke:#000000;stroke-linecap:round;stroke-linejoin:round;stroke-miterlimit:10;}
	.st26{fill:#75D95D;stroke:#000000;stroke-linecap:round;stroke-linejoin:round;stroke-miterlimit:10;}
	.st27{fill:#CAF3BB;}
	.st28{fill:#FFFFFF;}
	.st29{fill:#CAF3BB;stroke:#000000;stroke-linecap:round;stroke-linejoin:round;stroke-miterlimit:10;}
	.st30{display:inline;fill:#D0E6FB;stroke:#000000;stroke-linecap:round;stroke-linejoin:round;stroke-miterlimit:10;}
	.st31{stroke:#FFFFFF;stroke-linecap:round;stroke-linejoin:round;stroke-miterlimit:10;}
	.st32{fill:#B4B2FB;stroke:#000000;stroke-linecap:round;stroke-linejoin:round;stroke-miterlimit:10;}
	.st33{fill:#018BEE;}
	.st34{display:inline;fill:none;stroke:#000000;stroke-linecap:round;stroke-linejoin:round;stroke-miterlimit:10;}
	.st35{fill:#75D95D;}
	.st36{fill:#4949F7;stroke:#000000;stroke-linecap:round;stroke-linejoin:round;stroke-miterlimit:10;}
	.st37{fill:#D0E6FB;}
	.st38{fill:#6FBBF7;stroke:#000000;stroke-linecap:round;stroke-linejoin:round;stroke-miterlimit:10;}
	.st39{fill:#018BEE;stroke:#000000;stroke-linecap:round;stroke-linejoin:round;stroke-miterlimit:10;}
	.st40{fill:#B4B2FB;}
	.st41{fill:#E8E9FE;}
	.st42{fill:#B4B2FB;stroke:#000F24;stroke-miterlimit:10;}
	.st43{stroke:#000000;stroke-miterlimit:10;}
	.st44{fill:#E8E9FE;stroke:#000000;stroke-linecap:round;stroke-linejoin:round;stroke-miterlimit:10;}
	.st45{opacity:0.3;fill:#018BEE;}
	.st46{fill:#6FBBF7;}
	.st47{fill:#FAAC01;stroke:#FFFFFF;stroke-linecap:round;stroke-linejoin:round;stroke-miterlimit:10;}
	.st48{fill:#006A2F;}
	.st49{opacity:0.1;}
	.st50{fill:#FCD4CA;stroke:#000000;stroke-linecap:round;stroke-linejoin:round;stroke-miterlimit:10;}
	.st51{fill:#006A2F;stroke:#000000;stroke-linecap:round;stroke-linejoin:round;stroke-miterlimit:10;}
	.st52{fill:#4949F7;}
	.st53{fill:#F12A00;}
	.st54{fill:#D0E6FB;stroke:#018BEE;stroke-linecap:round;stroke-linejoin:round;stroke-miterlimit:10;}
	.st55{fill:#9CD7FF;}
	.st56{fill:#F7C86C;}
	.st57{opacity:0.3;stroke:#000000;stroke-linecap:round;stroke-linejoin:round;stroke-miterlimit:10;}
	.st58{opacity:0.1;stroke:#000000;stroke-linecap:round;stroke-linejoin:round;stroke-miterlimit:10;}
	.st59{opacity:0.3;fill:#006A2F;}
	.st60{stroke:#000000;stroke-width:1.0825;stroke-linecap:round;stroke-linejoin:round;stroke-miterlimit:10;}
	.st61{fill:#D0E6FB;stroke:#000000;stroke-width:1.0825;stroke-linecap:round;stroke-linejoin:round;stroke-miterlimit:10;}
	.st62{fill:#6FBBF7;stroke:#000000;stroke-width:1.0825;stroke-linecap:round;stroke-linejoin:round;stroke-miterlimit:10;}
	.st63{fill:none;stroke:#000000;stroke-width:1.0825;stroke-linecap:round;stroke-linejoin:round;stroke-miterlimit:10;}
	.st64{fill:#CAF3BB;stroke:#000000;stroke-width:0.7876;stroke-linecap:round;stroke-linejoin:round;stroke-miterlimit:10;}
	.st65{fill:#6FBBF7;stroke:#FFFFFF;stroke-linecap:round;stroke-linejoin:round;stroke-miterlimit:10;}
	.st66{opacity:0.2;}
	.st67{stroke:#E8E9FE;stroke-linecap:round;stroke-linejoin:round;stroke-miterlimit:10;}
	.st68{fill:#FCD4CA;}
	.st69{fill:#FBECCF;}
	.st70{opacity:0.1;fill:#F12A00;}
	.st71{opacity:0.5;stroke:#000000;stroke-linecap:round;stroke-linejoin:round;stroke-miterlimit:10;}
	.st72{fill:#6FBBF7;stroke:#E8E9FE;stroke-linecap:round;stroke-linejoin:round;stroke-miterlimit:10;}
	.st73{opacity:0.5;fill:#D0E6FB;}
	.st74{fill:#70BAF7;}
	.st75{fill:none;stroke:#FFFFFF;stroke-linecap:round;stroke-linejoin:round;stroke-miterlimit:10;}
	.st76{fill:#70BAF7;stroke:#70BAF7;stroke-linecap:round;stroke-linejoin:round;stroke-miterlimit:10;}
	.st77{fill:#018BEE;stroke:#018BEE;stroke-linecap:round;stroke-linejoin:round;stroke-miterlimit:10;}
	.st78{fill:#70BAF7;stroke:#000000;stroke-linecap:round;stroke-linejoin:round;stroke-miterlimit:10;}
	.st79{fill:#F9CD6C;stroke:#000000;stroke-linecap:round;stroke-linejoin:round;stroke-miterlimit:10;}
	.st80{fill:none;}
	.st81{fill:#006A2F;stroke:#006A2F;stroke-miterlimit:10;}
	.st82{fill:#B4DFFC;}
	.st83{fill:#6FBBF7;stroke:#018BEE;stroke-linecap:round;stroke-linejoin:round;stroke-miterlimit:10;}
	.st84{fill:none;stroke:#FBECCF;stroke-linecap:round;stroke-linejoin:round;stroke-miterlimit:10;}
	.st85{fill:none;stroke:#018BEE;stroke-linecap:round;stroke-linejoin:round;stroke-miterlimit:10;}
	.st86{fill:#010101;stroke:#FFFFFF;stroke-linecap:round;stroke-linejoin:round;stroke-miterlimit:10;}
	.st87{fill:#010101;stroke:#000000;stroke-linecap:round;stroke-linejoin:round;stroke-miterlimit:10;}
	.st88{fill:#75D95D;stroke:#FFFFFF;stroke-linecap:round;stroke-linejoin:round;stroke-miterlimit:10;}
	.st89{fill:#94F279;stroke:#000000;stroke-linecap:round;stroke-linejoin:round;stroke-miterlimit:10;}
	.st90{fill:#8C8CF9;}
	.st91{fill:#008FF5;}
	.st92{fill:#8CD8F9;}
	.st93{fill:#FFC043;}
	.st94{fill:#94F279;}
	.st95{fill:#FF3D1D;}
	.st96{fill:#31B1FF;}
	.st97{fill:#FFCF7B;}
	.st98{fill:#B2FF99;}
	.st99{fill:#D7D7FF;}
	.st100{fill:#FF7C6E;}
	.st101{fill:#5CC9FF;}
	.st102{fill:#F12A00;stroke:#FFFFFF;stroke-linecap:round;stroke-linejoin:round;stroke-miterlimit:10;}
	.st103{fill:#F7C86C;stroke:#000000;stroke-width:1.0164;stroke-miterlimit:10;}
</style><g id="Refrences" class="st0"/><g id="Tittle"/><g id="Icons"><g><g><path class="st5" d="M2,77.48v7.54c0,2.3,1.86,4.16,4.16,4.16h81.68c2.3,0,4.16-1.86,4.16-4.16v-7.54H2z"/><path class="st5" d="M6.49,77.48v1.88c0,0.09,0.07,0.16,0.16,0.16h80.7c0.09,0,0.16-0.07,0.16-0.16v-1.88H6.49z"/><circle class="st5" cx="47" cy="84.22" r="1.72"/></g><g><path class="st24" d="M87.84,85.06H6.16C3.86,85.06,2,83.2,2,80.9V18.73c0-2.3,1.86-4.16,4.16-4.16h81.68     c2.3,0,4.16,1.86,4.16,4.16V80.9C92,83.2,90.14,85.06,87.84,85.06z"/><path class="st38" d="M6.49,75.24V19.22c0-0.09,0.07-0.16,0.16-0.16h80.7c0.09,0,0.16,0.07,0.16,0.16v56.02     c0,0.09-0.07,0.16-0.16,0.16H6.65C6.56,75.4,6.49,75.33,6.49,75.24z"/><circle class="st5" cx="47" cy="80.11" r="1.72"/></g><g><path class="st5" d="M71.94,16.97v50.77h5.17c1.58,0,2.85-1.28,2.85-2.85V16.97H71.94z"/><path class="st25" d="M76.2,16.97v47.92c0,1.57-1.28,2.85-2.85,2.85H16.89c-1.58,0-2.85-1.28-2.85-2.85V16.97H76.2z"/><path class="st5" d="M77.11,5.58h-5.17v11.39h8.02V8.42C79.96,6.85,78.69,5.58,77.11,5.58z"/><path class="st26" d="M76.2,8.42v8.55H14.04V8.42c0-1.57,1.28-2.85,2.85-2.85h56.46C74.93,5.58,76.2,6.85,76.2,8.42z"/><g><path d="M42.85,31.68H31.57V20.41C37.81,20.41,42.85,25.46,42.85,31.68z"/><path class="st31" d="M33.8,22.92c3.21,0.81,5.73,3.34,6.55,6.54"/><g><path class="st26" d="M40.09,34.44c0,6.22-5.05,11.27-11.28,11.27c-6.22,0-11.27-5.05-11.27-11.27s5.05-11.27,11.27-11.27       v11.27H40.09z"/><path class="st48" d="M28.8,23.66v1.56C23.28,25.95,19,30.67,19,36.4c0,2.72,1.23,5.22,2.83,7.17c-2.46-2.06-4.3-5.16-4.3-8.63       C17.54,28.71,22.58,23.66,28.8,23.66z"/></g></g><path class="st80" d="M40.09,34.44c0,0.5-0.03,0.99-0.1,1.46c-0.71,5.53-5.45,9.8-11.19,9.8c-2.71,0-5.21-0.97-7.17-2.57     c-0.02-0.03-0.05-0.05-0.07-0.07c-1.6-1.94-2.57-4.44-2.57-7.17c0-5.72,4.28-10.45,9.8-11.17v9.71H40.09z"/><circle class="st81" cx="20.48" cy="11.27" r="1.74"/><circle class="st81" cx="26.83" cy="11.27" r="1.74"/><circle class="st81" cx="33.19" cy="11.27" r="1.74"/><circle class="st25" cx="19.43" cy="11.27" r="1.74"/><circle class="st25" cx="25.78" cy="11.27" r="1.74"/><circle class="st25" cx="32.14" cy="11.27" r="1.74"/><g><path class="st5" d="M43.92,64.29h-2.9c-0.38,0-0.69-0.31-0.69-0.69v-9.86c0-0.38,0.31-0.69,0.69-0.69h2.9      c0.38,0,0.69,0.31,0.69,0.69v9.86C44.61,63.98,44.31,64.29,43.92,64.29z"/><path class="st5" d="M52.95,64.29h-2.9c-0.38,0-0.69-0.31-0.69-0.69V46.78c0-0.38,0.31-0.69,0.69-0.69h2.9      c0.38,0,0.69,0.31,0.69,0.69V63.6C53.64,63.98,53.33,64.29,52.95,64.29z"/><path class="st5" d="M61.97,64.29h-2.9c-0.38,0-0.69-0.31-0.69-0.69V52.93c0-0.38,0.31-0.69,0.69-0.69h2.9      c0.38,0,0.69,0.31,0.69,0.69V63.6C62.66,63.98,62.35,64.29,61.97,64.29z"/><path class="st5" d="M71,64.29h-2.9c-0.38,0-0.69-0.31-0.69-0.69V40.88c0-0.38,0.31-0.69,0.69-0.69H71      c0.38,0,0.69,0.31,0.69,0.69V63.6C71.69,63.98,71.38,64.29,71,64.29z"/><path class="st29" d="M42.61,64.29h-2.9c-0.38,0-0.69-0.31-0.69-0.69v-9.86c0-0.38,0.31-0.69,0.69-0.69h2.9      c0.38,0,0.69,0.31,0.69,0.69v9.86C43.3,63.98,42.99,64.29,42.61,64.29z"/><path class="st26" d="M51.64,64.29h-2.9c-0.38,0-0.69-0.31-0.69-0.69V46.78c0-0.38,0.31-0.69,0.69-0.69h2.9      c0.38,0,0.69,0.31,0.69,0.69V63.6C52.33,63.98,52.02,64.29,51.64,64.29z"/><path class="st24" d="M60.66,64.29h-2.9c-0.38,0-0.69-0.31-0.69-0.69V52.93c0-0.38,0.31-0.69,0.69-0.69h2.9      c0.38,0,0.69,0.31,0.69,0.69V63.6C61.35,63.98,61.04,64.29,60.66,64.29z"/><path class="st26" d="M69.69,64.29h-2.9c-0.38,0-0.69-0.31-0.69-0.69V40.88c0-0.38,0.31-0.69,0.69-0.69h2.9      c0.38,0,0.69,0.31,0.69,0.69V63.6C70.38,63.98,70.07,64.29,69.69,64.29z"/></g><path class="st11" d="M40.09,34.44c0,6.22-5.05,11.27-11.28,11.27c-6.22,0-11.27-5.05-11.27-11.27s5.05-11.27,11.27-11.27v11.27     H40.09z"/></g></g><line class="st86" x1="76.2" y1="16.97" x2="79.96" y2="16.97"/></g><g id="Layer_4"/></svg>